<?xml version="1.0" encoding="UTF-8"?>
<svg version="1.1" xmlns="http://www.w3.org/2000/svg" width="431" height="604">
<path d="M0 0 C1.96733091 -0.00668677 1.96733091 -0.00668677 3.97440588 -0.01350862 C5.43352104 -0.01341932 6.89263619 -0.01322947 8.35175133 -0.01294994 C9.8990025 -0.01624933 11.44625281 -0.01997505 12.99350202 -0.02409142 C17.25215154 -0.03411107 21.51078697 -0.03782816 25.76944661 -0.04048073 C30.35993693 -0.04438388 34.95041608 -0.0539622 39.54089928 -0.0626936 C50.63021588 -0.08245752 61.7195334 -0.09252404 72.80886322 -0.10142139 C78.03063235 -0.10580433 83.25240046 -0.11117112 88.47416878 -0.11641026 C105.83176081 -0.13342232 123.18935221 -0.14791667 140.54695129 -0.155159 C145.05149524 -0.1570689 149.55603919 -0.15898923 154.06058311 -0.16094494 C155.18016916 -0.16142868 156.2997552 -0.16191242 157.4532681 -0.16241082 C175.59136295 -0.1707118 193.72939188 -0.19604997 211.86745794 -0.22852562 C230.48797853 -0.26159337 249.1084656 -0.2796075 267.72901571 -0.28280324 C278.18435338 -0.28496857 288.63959489 -0.29372075 299.09490395 -0.31926441 C307.99879831 -0.34096749 316.90257316 -0.34902373 325.80649097 -0.33929763 C330.34849872 -0.33475184 334.89025986 -0.33665543 339.43223381 -0.35605907 C343.59372253 -0.37368353 347.7547846 -0.37269896 351.91627781 -0.35716178 C353.41835026 -0.35478462 354.9204522 -0.35911496 356.42247958 -0.37099043 C365.36641206 -0.43729973 374.51282475 -0.44509012 381.56614935 5.82567519 C388.33467372 12.97379676 389.10344542 20.202508 389.04456139 29.6543932 C389.04924136 30.80936971 389.05392133 31.96434623 389.05874312 33.15432203 C389.06861665 36.34752976 389.06509281 39.54039353 389.05578446 42.73359251 C389.04898407 46.18313776 389.05948082 49.63263725 389.06772423 53.08217335 C389.08105915 59.83876409 389.07818318 66.5952548 389.06948631 73.35184945 C389.06270137 78.85208288 389.06179657 84.35228834 389.06505775 89.85252476 C389.06551745 90.6364911 389.06597715 91.42045744 389.06645078 92.22818034 C389.06741003 93.82115425 389.06838267 95.41412816 389.06936856 97.00710206 C389.07792378 111.94741786 389.06809034 126.88767847 389.05196746 141.82798521 C389.03860084 154.60847706 389.04086182 167.38888701 389.05472374 180.16937733 C389.07084076 195.03581951 389.07706126 209.9022131 389.06788695 224.76866281 C389.06693141 226.35994076 389.0659883 227.95121872 389.06505775 229.54249668 C389.06459493 230.32524824 389.0641321 231.1079998 389.06365525 231.9144711 C389.06108089 237.39199562 389.06540332 242.869489 389.07249641 248.34700871 C389.08098153 255.04660314 389.07848771 261.74609238 389.06265418 268.44567503 C389.05485864 271.85492273 389.05318769 275.2638542 389.06160164 278.67312145 C389.10402623 297.62613379 388.54756945 316.54640019 382.97611046 334.82172108 C382.72192345 335.67781971 382.46773643 336.53391834 382.20584679 337.41595936 C374.50301855 362.38501945 360.44281214 382.2966746 343.53079796 401.80218983 C341.0398741 404.68144822 338.62062328 407.61147171 336.22611046 410.57172108 C329.05362038 419.39739852 321.56450636 427.97091072 313.91361046 436.38422108 C310.85249293 439.75312922 307.95352594 443.21192413 305.10111046 446.75922108 C301.79886948 450.84251383 298.33613668 454.57422541 294.57376671 458.23187733 C289.58481635 463.20042298 285.14095597 468.7071356 280.66361046 474.13422108 C280.00361046 473.80422108 279.34361046 473.47422108 278.66361046 473.13422108 C278.23567665 471.36443239 278.23567665 471.36443239 277.98022842 469.00309563 C277.82795266 467.65911016 277.82795266 467.65911016 277.67260063 466.28797346 C277.56947976 465.29227683 277.46635889 464.2965802 277.36011314 463.27071095 C277.18604067 461.69733657 277.18604067 461.69733657 277.00845158 460.09217685 C276.61880306 456.54924275 276.2426067 453.00500571 275.86624718 449.46063709 C275.59089315 446.93165994 275.31472067 444.40277178 275.03778648 441.87396717 C274.36394461 435.70122602 273.69874747 429.52760426 273.03733049 423.35352106 C272.26732917 416.16996781 271.48699304 408.98754901 270.70603694 401.80517983 C269.3132417 388.99304747 267.92896089 376.18000984 266.54984093 363.36639881 C265.21035766 350.92120188 263.86636691 338.47650449 262.5166378 326.03241444 C262.43352737 325.2661501 262.35041694 324.49988577 262.26478802 323.7104013 C261.93074707 320.63074259 261.5966821 317.55108648 261.26258337 314.47143403 C258.70308724 290.87753047 256.14749247 267.28319271 253.60626411 243.68731403 C253.33894133 241.20638839 253.07126077 238.72550126 252.80320549 236.24465466 C252.43882798 232.87145056 252.07578684 229.49810543 251.71314049 226.12471485 C251.55176702 224.63451599 251.55176702 224.63451599 251.38713348 223.1142121 C251.2908318 222.21561403 251.19453012 221.31701597 251.09531021 220.39118767 C250.9693504 219.22208244 250.9693504 219.22208244 250.84084594 218.02935892 C250.66361046 216.13422108 250.66361046 216.13422108 250.66361046 214.13422108 C189.77861046 214.62922108 189.77861046 214.62922108 127.66361046 215.13422108 C139.87361046 221.40422108 152.08361046 227.67422108 164.66361046 234.13422108 C169.28361046 236.77422108 173.90361046 239.41422108 178.66361046 242.13422108 C178.42335703 261.59162311 178.18010962 281.0489851 177.93311977 300.50630283 C177.81845456 309.54501827 177.7047628 318.5837438 177.5935421 327.62250233 C177.4963575 335.52034857 177.39716401 343.41816688 177.29576486 351.31596017 C177.24236933 355.4798801 177.1898384 359.64380599 177.13973236 363.80776691 C176.86474439 386.5910229 176.36257276 409.35994562 175.66361046 432.13422108 C175.33361046 432.13422108 175.00361046 432.13422108 174.66361046 432.13422108 C172.57108096 393.21392371 170.62706593 354.28830511 168.77523792 315.35593951 C168.40144514 307.49876777 168.0256634 299.64169124 167.64993858 291.7846117 C166.98604472 277.90123279 166.32493344 264.01772321 165.66361046 250.13422108 C147.18361046 240.89422108 128.70361046 231.65422108 109.66361046 222.13422108 C109.10045128 228.10580311 108.5372921 234.07738514 107.95706749 240.2299242 C105.72907049 263.69804579 103.36511911 287.15157034 100.96829796 310.60297108 C100.86175848 311.64578802 100.75521901 312.68860497 100.64545107 313.76302242 C99.637284 323.63002561 98.62798391 333.49691225 97.61568069 343.36349201 C96.3341221 355.85508262 95.05869645 368.34726778 93.79109752 380.84028292 C92.89015702 389.71475958 91.98249855 398.58853341 91.06976521 407.46180487 C90.52767341 412.73359739 89.98856208 418.00565485 89.45672798 423.27849293 C88.96039975 428.19795648 88.45581239 433.11650078 87.94468117 438.03444767 C87.7585714 439.83938891 87.57552211 441.64464862 87.39569664 443.45022678 C87.15077196 445.90485635 86.89505672 448.35812185 86.63648033 450.8113451 C86.56721553 451.53171436 86.49795072 452.25208362 86.42658699 452.99428225 C85.89187113 457.9059604 85.89187113 457.9059604 83.66361046 460.13422108 C76.47057005 452.55236767 69.3962111 444.98209758 62.87064171 436.81000233 C60.40381303 433.81924544 57.8037365 430.97076887 55.16361046 428.13422108 C50.92951579 423.57841108 46.9342844 418.88149779 43.03470421 414.03656483 C40.34530633 410.74460005 37.57212145 407.53397611 34.78861046 404.32172108 C30.27829302 399.10304792 25.95993854 393.76824273 21.74051476 388.31244373 C19.07984741 384.8870079 16.3388949 381.56353769 13.48953819 378.29364491 C-13.72100967 346.9969694 -25.57864832 309.09117661 -25.44991493 267.908391 C-25.45006096 266.65803562 -25.45020699 265.40768024 -25.45035744 264.11943531 C-25.44978578 260.73599074 -25.44481831 257.35260945 -25.43778348 253.96917605 C-25.43147367 250.41647105 -25.43094017 246.86376493 -25.42975807 243.31105518 C-25.42666702 236.60369598 -25.41848405 229.89635334 -25.40840858 223.18900138 C-25.39717779 215.54434948 -25.39171955 207.89969673 -25.38671315 200.25503862 C-25.37629924 184.54808989 -25.35874351 168.84115763 -25.33638954 153.13422108 C-21.45729836 153.74286037 -18.43073397 154.91617245 -14.94303322 156.70435047 C-13.33888306 157.52067448 -13.33888306 157.52067448 -11.70232582 158.35348988 C-10.53911812 158.953055 -9.37591042 159.55262012 -8.17745399 160.17035389 C-6.93218634 160.80651465 -5.68659781 161.44204764 -4.44071388 162.07700062 C-1.76177545 163.44320556 0.91548827 164.81262103 3.59168625 166.18418598 C7.82768785 168.35357765 12.07111359 170.50814579 16.31639671 172.65930653 C17.39223307 173.20458244 17.39223307 173.20458244 18.48980349 173.76087403 C19.95621121 174.50408843 21.42263289 175.24727526 22.88906825 175.99043512 C32.76823954 180.99794951 42.64190834 186.01573673 52.49637413 191.07172108 C59.14888074 194.48474854 65.81254438 197.87479985 72.48985893 201.23904777 C76.02024589 203.01893384 79.5438608 204.81001362 83.05405807 206.62943745 C86.35737738 208.34143931 89.67458236 210.02273612 93.00461578 211.68214512 C94.79804239 212.5856118 96.57535516 213.52084778 98.35190392 214.45706654 C103.75584662 217.11500182 107.38250027 218.77699108 113.33897972 217.10413074 C116.11589961 216.03106313 117.54167374 215.25615779 119.66361046 213.13422108 C118.78028038 212.66749989 117.8969503 212.20077869 116.98685265 211.71991444 C100.68466918 203.10484239 84.39304396 194.47177223 68.1470089 185.75116444 C59.33182998 181.02157364 50.50038379 176.32330464 41.66361046 171.63422108 C22.727763 161.58372591 3.80995648 151.49998935 -15.02388954 141.25922108 C-15.95733192 140.75286121 -16.89077431 140.24650135 -17.85250282 139.72479725 C-18.69667763 139.26436024 -19.54085243 138.80392323 -20.41060829 138.32953358 C-21.14883827 137.92750721 -21.88706825 137.52548084 -22.64766884 137.11127186 C-24.33638954 136.13422108 -24.33638954 136.13422108 -25.33638954 135.13422108 C-25.43852278 133.67676369 -25.47157475 132.21439907 -25.47683144 130.75337696 C-25.48254158 129.80724033 -25.48825172 128.86110371 -25.4941349 127.88629627 C-25.49581169 126.31627857 -25.49581169 126.31627857 -25.49752235 124.71454334 C-25.50248726 123.6185532 -25.50745216 122.52256306 -25.51256752 121.39336109 C-25.52724176 117.74577689 -25.53400213 114.09823627 -25.53951454 110.45062733 C-25.54526449 107.92010465 -25.55102224 105.38958198 -25.55678749 102.85905933 C-25.56596681 98.2209412 -25.5722591 93.58283619 -25.57528424 88.94471127 C-25.57975087 82.13422246 -25.59722686 75.32393577 -25.62628484 68.51350838 C-25.65060582 62.60660767 -25.65823369 56.69975661 -25.65995979 50.79280376 C-25.6629803 48.28628856 -25.67098842 45.77977408 -25.68414497 43.27329159 C-25.70128499 39.75485782 -25.69930481 36.23690869 -25.69283485 32.71844959 C-25.70204964 31.6899892 -25.71126442 30.66152882 -25.72075844 29.60190296 C-25.6769374 21.95750876 -24.86023928 14.03183131 -20.08638954 7.75922108 C-14.01052664 1.95953376 -8.29881415 0.01307456 0 0 Z M178.66361046 15.13422108 C177.34361046 16.12422108 176.02361046 17.11422108 174.66361046 18.13422108 C175.04265254 21.42498104 175.04265254 21.42498104 176.66361046 24.13422108 C179.12171044 24.38429838 179.12171044 24.38429838 181.66361046 24.13422108 C182.32361046 23.47422108 182.98361046 22.81422108 183.66361046 22.13422108 C183.65438344 19.58708704 183.65438344 19.58708704 182.66361046 17.13422108 C180.69602773 15.77401956 180.69602773 15.77401956 178.66361046 15.13422108 Z M178.66361046 29.13422108 C178.71525352 29.89339832 178.76689659 30.65257557 178.8201046 31.43475819 C179.17521094 40.34071731 178.90640809 49.12563334 174.66361046 57.13422108 C167.298994 64.79934958 155.54164549 68.46305229 145.90091515 72.36176014 C139.8713437 74.82841844 134.20014142 77.90524145 128.47611046 81.00922108 C126.69272848 81.94749703 124.90771062 82.88267403 123.12064171 83.81390858 C122.34929893 84.21706287 121.57795616 84.62021717 120.78323936 85.03558826 C118.09071249 86.43116197 115.38231289 87.79044344 112.66361046 89.13422108 C116.2124714 90.34080802 118.80465131 89.9367156 122.45096397 89.2221117 C123.61640236 88.99858021 124.78184074 88.77504871 125.98259544 88.54474354 C127.23986946 88.29583363 128.49714348 88.04692371 129.79251671 87.79047108 C131.1054404 87.53886089 132.41859098 87.28843206 133.73195457 87.0391283 C139.29748497 85.98065218 144.85911825 84.90249482 150.41873741 83.8134203 C153.82507171 83.14700247 157.23399354 82.49542821 160.64479446 81.85228443 C162.55604229 81.48732296 164.46408949 81.10572427 166.37199974 80.72369862 C173.78664961 79.32799094 180.21400074 78.92851226 187.66361046 80.13422108 C188.58405647 80.28203022 189.50450249 80.42983936 190.45284081 80.58212757 C193.39127197 81.08698466 196.31789429 81.63723983 199.24564171 82.20062733 C200.30345345 82.39897678 201.36126518 82.59732624 202.45113182 82.80168629 C206.92894387 83.64140141 211.40447815 84.49297029 215.88016319 85.34393787 C219.16784455 85.96722994 222.45668541 86.58410431 225.74564171 87.20062733 C226.75198158 87.39435429 227.75832146 87.58808125 228.79515648 87.78767872 C233.48129597 88.66514232 237.87026204 89.38416393 242.66361046 89.13422108 C240.31515916 86.50228638 237.94842785 85.10758118 234.78861046 83.56781483 C233.81254845 83.08723621 232.83648643 82.6066576 231.83084679 82.111516 C230.7856588 81.60338367 229.74047081 81.09525135 228.66361046 80.57172108 C226.47923557 79.49517961 224.29565085 78.41703347 222.11282921 77.33734608 C221.02405479 76.79916248 219.93528038 76.26097889 218.8135128 75.7064867 C213.54395152 73.07619879 208.30278868 70.38649467 203.14969444 67.53387928 C199.71827227 65.64497867 196.52339723 63.99809506 192.74173546 62.94281483 C188.71921891 61.58856759 186.66598535 60.12340113 183.66361046 57.13422108 C182.54691124 54.00116444 182.54691124 54.00116444 181.98392296 50.47406483 C181.67539391 48.58083485 181.67539391 48.58083485 181.36063194 46.6493578 C180.60944742 40.82200879 180.04716526 34.99696385 179.66361046 29.13422108 C179.33361046 29.13422108 179.00361046 29.13422108 178.66361046 29.13422108 Z M186.66361046 100.13422108 C186.66361046 113.00422108 186.66361046 125.87422108 186.66361046 139.13422108 C207.45361046 139.13422108 228.24361046 139.13422108 249.66361046 139.13422108 C249.66361046 130.88422108 249.66361046 122.63422108 249.66361046 114.13422108 C238.00628488 110.91113623 226.27996452 108.16775374 214.47073936 105.56000233 C211.376392 104.8759939 208.28363875 104.18507963 205.19095421 103.49359608 C203.21838854 103.05568786 201.24573551 102.61817293 199.27298546 102.18109608 C198.35120506 101.9749065 197.42942467 101.76871693 196.47971153 101.55627918 C195.62741966 101.36898243 194.77512779 101.18168568 193.8970089 100.98871326 C192.77573601 100.7403371 192.77573601 100.7403371 191.63181114 100.48694324 C189.50471064 100.04602098 189.50471064 100.04602098 186.66361046 100.13422108 Z M163.03055382 101.31171131 C161.87603218 101.5687534 160.72151054 101.82579548 159.5320034 102.09062672 C158.28508217 102.37184879 157.03816093 102.65307087 155.75345421 102.94281483 C154.47507179 103.22899174 153.19668938 103.51516865 151.8795681 103.81001759 C149.17487525 104.41579526 146.47070159 105.02382569 143.76688194 105.63348866 C140.29855289 106.41538219 136.82908217 107.19206518 133.35921955 107.96712112 C130.05253798 108.70638425 126.7467828 109.44974649 123.44095421 110.19281483 C122.19200874 110.47201267 120.94306328 110.75121052 119.65627098 111.0388689 C117.92921677 111.42916027 117.92921677 111.42916027 116.16727257 111.82733631 C114.64196167 112.1704208 114.64196167 112.1704208 113.08583641 112.52043629 C110.67484669 113.03951512 110.67484669 113.03951512 108.66361046 114.13422108 C108.66361046 122.38422108 108.66361046 130.63422108 108.66361046 139.13422108 C129.45361046 139.13422108 150.24361046 139.13422108 171.66361046 139.13422108 C171.66361046 126.26422108 171.66361046 113.39422108 171.66361046 100.13422108 C168.56557403 100.13422108 166.05142882 100.63512607 163.03055382 101.31171131 Z M84.66361046 157.13422108 C87.64104773 163.08909562 90.51878591 168.80821307 93.97611046 174.44672108 C94.3563839 175.07336658 94.73665733 175.70001209 95.12845421 176.34564686 C96.3027524 178.27769791 97.48284785 180.20611556 98.66361046 182.13422108 C99.43845982 183.40628963 100.21320152 184.67842377 100.98782921 185.95062733 C103.95566395 191.33277937 103.95566395 191.33277937 107.66361046 196.13422108 C109.48772719 196.26563278 111.31689552 196.32724614 113.14540672 196.36214161 C114.33555382 196.38663883 115.52570091 196.41113605 116.75191307 196.43637562 C118.06976295 196.45791706 119.38761284 196.4794585 120.74539757 196.50165272 C122.13817295 196.52754726 123.53094429 196.55366016 124.92371178 196.57997608 C137.66880845 196.81133086 150.41557086 196.94147808 163.16227436 197.04534721 C171.73218673 197.1167515 180.2995337 197.21824182 188.86795616 197.39618397 C196.34259692 197.5514 203.81545341 197.64987445 211.29168326 197.68030733 C215.24782491 197.69825479 219.19919222 197.74355911 223.15385818 197.85646725 C238.70897811 199.00306584 238.70897811 199.00306584 252.93459129 194.58804226 C256.41591536 190.92124849 258.33372061 186.87052245 259.93663406 182.12055302 C261.05527204 179.06407641 262.72980691 176.53038807 264.48392296 173.79437733 C265.58757132 171.92972492 266.68919719 170.06387367 267.78861046 168.19672108 C268.65099327 166.74362537 268.65099327 166.74362537 269.53079796 165.2611742 C270.07220421 164.34400623 270.61361046 163.42683826 271.17142296 162.48187733 C271.6524044 161.66727039 272.13338585 160.85266346 272.62894249 160.01337147 C273.74399796 158.34575028 273.74399796 158.34575028 273.66361046 157.13422108 C211.29361046 157.13422108 148.92361046 157.13422108 84.66361046 157.13422108 Z " fill="#0D4779" transform="translate(34.33638954162598,4.865778923034668)"/>
<path d="M0 0 C1.36118958 -0.00744736 1.36118958 -0.00744736 2.74987793 -0.01504517 C5.77100369 -0.02972126 8.79207677 -0.03648148 11.81323242 -0.04199219 C13.91297914 -0.04774377 16.01272585 -0.0535015 18.11247253 -0.05926514 C22.52859747 -0.06979372 26.94470412 -0.07562269 31.36083984 -0.07910156 C36.9950174 -0.08455849 42.62894988 -0.10851825 48.26305103 -0.13707352 C52.60848162 -0.15579463 56.95385464 -0.16091075 61.29932213 -0.16243744 C63.37435926 -0.16544844 65.44939575 -0.17342399 67.52439308 -0.18662262 C92.14632693 -0.33192145 92.14632693 -0.33192145 101.35620117 4.84863281 C108.49159842 13.09893588 109.05348854 22.63956453 108.35620117 33.16113281 C107.31746652 38.45409687 105.83303006 42.83961461 101.35620117 46.16113281 C100.69620117 46.16113281 100.03620117 46.16113281 99.35620117 46.16113281 C99.35620117 46.82113281 99.35620117 47.48113281 99.35620117 48.16113281 C100.43901367 48.50144531 100.43901367 48.50144531 101.54370117 48.84863281 C105.58999843 50.73690487 108.35157519 53.2983888 110.48120117 57.24707031 C111.71216615 61.34662331 111.68526776 65.21602069 111.66870117 69.47363281 C111.68481445 70.29025391 111.70092773 71.106875 111.7175293 71.94824219 C111.72297631 78.78424961 110.28612323 84.01607464 106.66870117 89.91113281 C98.63968438 97.72314916 87.18176769 98.47449934 76.51611328 98.40405273 C75.5896701 98.40595108 74.66322693 98.40784943 73.70870972 98.4098053 C70.68356537 98.41347417 67.65866745 98.40287066 64.63354492 98.39160156 C62.52030973 98.39040818 60.40707401 98.38995694 58.2938385 98.39021301 C53.88531125 98.38865526 49.47686602 98.38041501 45.06835938 98.36694336 C39.4054163 98.34986042 33.74256235 98.34613206 28.07959652 98.34688854 C23.72605024 98.34661747 19.37252361 98.34114788 15.01898384 98.3338871 C12.92928783 98.33069765 10.83958959 98.32873238 8.74989128 98.32799339 C5.84380108 98.32583806 2.93780783 98.31711424 0.03173828 98.30639648 C-0.83727615 98.30684967 -1.70629059 98.30730286 -2.60163879 98.30776978 C-8.52931561 98.27561603 -8.52931561 98.27561603 -9.64379883 97.16113281 C-9.74441153 94.18351912 -9.77994776 91.22906114 -9.77319336 88.25097656 C-9.77494568 87.31609406 -9.776698 86.38121155 -9.77850342 85.41799927 C-9.78292357 82.31152519 -9.77998337 79.20510752 -9.77661133 76.09863281 C-9.77728432 73.95011382 -9.77825431 71.8015949 -9.7795105 69.65307617 C-9.78098769 65.1437101 -9.77883222 60.63436379 -9.77416992 56.125 C-9.76847263 50.33064704 -9.77175152 44.53634039 -9.77774239 38.74198914 C-9.78134742 34.30350391 -9.78020968 29.86502974 -9.77761459 25.42654419 C-9.77694516 23.28939814 -9.7777743 21.1522511 -9.78009415 19.0151062 C-9.78261972 16.03380655 -9.77878142 13.05258301 -9.77319336 10.07128906 C-9.77521759 9.17878448 -9.77724182 8.28627991 -9.77932739 7.36672974 C-9.74982389 -1.08402227 -7.68048853 0.00991567 0 0 Z M10.35620117 18.16113281 C10.35620117 25.42113281 10.35620117 32.68113281 10.35620117 40.16113281 C19.67474855 40.20631449 28.9932232 40.24300911 38.31185532 40.26475716 C42.63885314 40.27519503 46.96577215 40.28935431 51.29272461 40.31201172 C55.46835353 40.33373995 59.64390662 40.34570141 63.81958771 40.3508873 C65.41279545 40.35458309 67.00599903 40.36180001 68.5991745 40.37259293 C70.83044915 40.38710767 73.06141035 40.38911078 75.29272461 40.38818359 C76.56291443 40.39262482 77.83310425 40.39706604 79.14178467 40.40164185 C82.18646304 40.17383296 83.86168339 39.86608432 86.35620117 38.16113281 C88.77951008 34.04150768 88.80753119 29.80607095 88.35620117 25.16113281 C87.40267753 21.50261477 87.40267753 21.50261477 84.71954346 19.04251099 C81.49795637 17.84106143 78.73025804 17.92206268 75.29272461 17.93408203 C74.58988342 17.93378998 73.88704224 17.93349792 73.16290283 17.93319702 C70.84700033 17.93458689 68.53142225 17.95013168 66.21557617 17.96582031 C64.60703711 17.96955167 62.99849577 17.97239806 61.38995361 17.97439575 C57.16159766 17.98202258 52.93337967 18.00166287 48.70507812 18.02380371 C44.38828396 18.04428263 40.07146744 18.05340184 35.75463867 18.06347656 C27.28842255 18.08490971 18.82234493 18.12008408 10.35620117 18.16113281 Z M10.35620117 56.16113281 C10.35620117 64.08113281 10.35620117 72.00113281 10.35620117 80.16113281 C19.75331547 80.22901846 29.15026581 80.28401216 38.54757023 80.31656933 C42.91152652 80.3321983 47.27530575 80.35338573 51.63916016 80.38745117 C55.8537157 80.42014374 60.06810137 80.43800664 64.28277397 80.44576454 C65.88747264 80.45129033 67.49216243 80.46208084 69.09678841 80.47832298 C71.35151087 80.50022943 73.60553911 80.50309432 75.86035156 80.50170898 C77.14164444 80.50837082 78.42293732 80.51503265 79.74305725 80.52189636 C83.96782984 80.10006319 86.60212532 79.10697821 90.35620117 77.16113281 C91.82482006 74.22389503 91.60413521 71.55520924 91.66870117 68.28613281 C91.70608398 67.05121094 91.7434668 65.81628906 91.78198242 64.54394531 C91.64648903 61.10253506 91.64648903 61.10253506 89.46166992 58.77832031 C85.72191937 55.90585885 82.80051205 56.02400825 78.24438477 56.04760742 C77.51257492 56.0474614 76.78076508 56.04731537 76.02677917 56.04716492 C73.60270241 56.04786278 71.17870205 56.05564927 68.75463867 56.06347656 C67.07597902 56.06534119 65.39731883 56.06676488 63.71865845 56.06776428 C59.2963308 56.07158593 54.87403589 56.08141322 50.45172119 56.09246826 C45.94071902 56.10268995 41.42971158 56.10726353 36.91870117 56.11230469 C28.06451779 56.12303579 19.21036732 56.14062976 10.35620117 56.16113281 Z " fill="#5F6060" transform="translate(311.643798828125,501.8388671875)"/>
<path d="M0 0 C8.23298866 0.18574851 8.23298866 0.18574851 12.36669922 3.13525391 C13.59133774 4.57992205 14.79680501 6.04088895 15.99169922 7.51025391 C18.25135748 9.71343928 20.59755529 11.82124952 22.92919922 13.94775391 C24.23209578 15.16424229 25.53281881 16.38306207 26.83154297 17.60400391 C29.71775833 20.3142726 32.60591477 23.02244076 35.49560547 25.72900391 C36.99446546 27.13508116 38.49316681 28.54132754 39.99169922 29.94775391 C40.68513428 30.59736084 41.37856934 31.24696777 42.09301758 31.91625977 C45.36108663 34.98877299 48.5889236 38.088731 51.74951172 41.27197266 C54.0446952 43.58308588 56.37094426 45.78881974 58.86669922 47.88525391 C62.69325346 51.17993188 66.21677224 54.717772 69.76123047 58.31103516 C72.39504803 60.9079516 75.1453147 63.32604735 77.97216797 65.70947266 C79.75307257 67.29747463 81.43547779 68.93235646 83.11791992 70.62280273 C83.92589775 71.43374138 83.92589775 71.43374138 84.75019836 72.26106262 C85.15989365 72.67329575 85.56958893 73.08552887 85.99169922 73.51025391 C85.99978607 72.62520172 86.00787292 71.74014954 86.01620483 70.82827759 C86.09405072 62.49943579 86.18131073 54.17075785 86.2792263 45.84212685 C86.32923503 41.5599862 86.37556444 37.27787077 86.41357422 32.99560547 C86.45036952 28.86525173 86.49671332 24.73510672 86.54976273 20.60493088 C86.56833741 19.0268659 86.58343394 17.44875613 86.59504318 15.87062454 C86.61185349 13.66515848 86.64087456 11.46017368 86.67285156 9.25488281 C86.68617523 7.99801666 86.6994989 6.74115051 86.71322632 5.44619751 C86.99169922 2.51025391 86.99169922 2.51025391 88.99169922 0.51025391 C90.85522461 0.26733398 90.85522461 0.26733398 93.08935547 0.27978516 C93.89050781 0.28171875 94.69166016 0.28365234 95.51708984 0.28564453 C96.35433594 0.29789062 97.19158203 0.31013672 98.05419922 0.32275391 C99.31586914 0.3237207 99.31586914 0.3237207 100.60302734 0.32470703 C106.85146738 0.37002207 106.85146738 0.37002207 107.99169922 1.51025391 C108.09231192 4.4878676 108.12784815 7.44232558 108.12109375 10.42041016 C108.12372223 11.82273392 108.12372223 11.82273392 108.12640381 13.25338745 C108.13082396 16.35986153 108.12788376 19.4662792 108.12451172 22.57275391 C108.12518471 24.7212729 108.1261547 26.86979182 108.12741089 29.01831055 C108.12888808 33.52767662 108.12673261 38.03702293 108.12207031 42.54638672 C108.11637302 48.34073968 108.11965191 54.13504632 108.12564278 59.92939758 C108.12924781 64.36788281 108.12811007 68.80635697 108.12551498 73.24484253 C108.12484555 75.38198858 108.12567469 77.51913562 108.12799454 79.65628052 C108.13052011 82.63758017 108.12668181 85.61880371 108.12109375 88.60009766 C108.12311798 89.49260223 108.12514221 90.38510681 108.12722778 91.30465698 C108.10596154 97.39599158 108.10596154 97.39599158 106.99169922 98.51025391 C99.17452359 99.58376089 89.92203235 100.28968128 82.64404297 96.99462891 C79.80713234 94.68402297 77.43670417 92.23343307 74.99169922 89.51025391 C73.83756521 88.3466929 72.67559479 87.19087042 71.50732422 86.04150391 C69.05509959 83.62659645 66.62570303 81.19252822 64.21435547 78.73681641 C61.24236031 75.73135091 58.13978344 72.94324824 54.91357422 70.21337891 C51.59807431 67.27525297 48.54536125 64.07067822 45.43310547 60.92041016 C42.71967195 58.24170858 39.88392899 55.76417273 36.98779297 53.28759766 C33.92503195 50.56048168 31.08946429 47.61620754 28.21044922 44.69775391 C25.5917439 42.11593176 22.83949424 39.73547615 20.04638672 37.34619141 C16.84428104 34.48499431 13.86794145 31.40743669 10.87451172 28.33056641 C9.11416583 26.44641493 9.11416583 26.44641493 6.99169922 25.51025391 C6.98139175 26.41005478 6.97108429 27.30985565 6.96046448 28.23692322 C6.8626658 36.69846177 6.76017702 45.1599275 6.65235996 53.62134457 C6.59709137 57.97190196 6.54366523 62.32246603 6.49438477 66.6730957 C6.44679908 70.86821601 6.39445864 75.06325203 6.33875847 79.25827217 C6.31830856 80.86229936 6.29959992 82.46634968 6.2826252 84.0704174 C6.25863924 86.30948159 6.22857728 88.54838507 6.19702148 90.78735352 C6.1814772 92.06420517 6.16593292 93.34105682 6.1499176 94.65660095 C5.99169922 97.51025391 5.99169922 97.51025391 4.99169922 98.51025391 C3.66126297 98.60862601 2.32576578 98.64103983 0.99169922 98.64306641 C0.18732422 98.64435547 -0.61705078 98.64564453 -1.44580078 98.64697266 C-2.29142578 98.64310547 -3.13705078 98.63923828 -4.00830078 98.63525391 C-4.85392578 98.63912109 -5.69955078 98.64298828 -6.57080078 98.64697266 C-7.37517578 98.64568359 -8.17955078 98.64439453 -9.00830078 98.64306641 C-9.75080078 98.64193848 -10.49330078 98.64081055 -11.25830078 98.63964844 C-13.00830078 98.51025391 -13.00830078 98.51025391 -14.00830078 97.51025391 C-14.10891348 94.53264021 -14.14444971 91.57818223 -14.13769531 88.60009766 C-14.13944763 87.66521515 -14.14119995 86.73033264 -14.14300537 85.76712036 C-14.14742552 82.66064628 -14.14448532 79.55422862 -14.14111328 76.44775391 C-14.14178627 74.29923491 -14.14275626 72.150716 -14.14401245 70.00219727 C-14.14548965 65.49283119 -14.14333418 60.98348488 -14.13867188 56.47412109 C-14.13297458 50.67976813 -14.13625347 44.88546149 -14.14224434 39.09111023 C-14.14584937 34.652625 -14.14471163 30.21415084 -14.14211655 25.77566528 C-14.14144712 23.63851923 -14.14227625 21.50137219 -14.1445961 19.36422729 C-14.14712168 16.38292764 -14.14328337 13.40170411 -14.13769531 10.42041016 C-14.13971954 9.52790558 -14.14174377 8.635401 -14.14382935 7.71585083 C-14.10921906 -2.19764879 -8.60274285 0.0299449 0 0 Z " fill="#606161" transform="translate(177.00830078125,501.48974609375)"/>
<path d="M0 0 C3.95915631 0.5494324 6.53080339 1.25521297 9.79760742 3.61352539 C11.96773583 6.49669599 13.49217838 9.41963948 15.08666992 12.65649414 C16.19811134 14.50617363 17.35670236 16.32022184 18.52148438 18.13671875 C19.81056468 20.15085962 21.06753838 22.18254926 22.32104492 24.21899414 C25.31846822 29.05663523 28.41543561 33.82735961 31.52416992 38.59399414 C32.07532471 39.43929687 32.62647949 40.28459961 33.19433594 41.15551758 C34.29575829 42.84413866 35.39739956 44.53261696 36.49926758 46.22094727 C38.91212789 49.92299194 41.31254602 53.63303827 43.71166992 57.34399414 C44.15542969 58.02993652 44.59918945 58.71587891 45.05639648 59.42260742 C47.35132332 62.97045383 49.64389648 66.51980533 51.93432617 70.07055664 C52.40555908 70.80024658 52.87679199 71.52993652 53.36230469 72.28173828 C54.29249431 73.72278424 55.22140046 75.16465961 56.14892578 76.60742188 C58.23690037 79.84539446 60.34675332 83.05794148 62.55541992 86.21508789 C63.28760742 87.26825195 64.01979492 88.32141602 64.77416992 89.40649414 C65.7390332 90.76000977 65.7390332 90.76000977 66.72338867 92.14086914 C68.24865723 94.95540482 68.20081601 96.51796739 68.08666992 99.65649414 C64.71285185 99.89022521 61.34111991 100.03132933 57.96166992 100.15649414 C56.53467773 100.25704102 56.53467773 100.25704102 55.07885742 100.35961914 C48.10875128 100.5532332 48.10875128 100.5532332 45.15161133 97.95874023 C43.61936252 95.92121024 42.33728684 93.87555097 41.08666992 91.65649414 C40.30163923 90.52685352 39.51068631 89.40128605 38.71166992 88.28149414 C37.08666992 85.65649414 37.08666992 85.65649414 37.08666992 83.65649414 C26.95896326 83.46220696 16.8334591 83.34440773 6.70382881 83.32227516 C1.99900329 83.30963364 -2.70261659 83.27138568 -7.40649414 83.1730957 C-11.95285066 83.07906447 -16.49495461 83.05428736 -21.04217911 83.07603073 C-22.77019819 83.0724111 -24.49835446 83.04449161 -26.22555161 82.99107742 C-35.48503473 82.47330155 -35.48503473 82.47330155 -43.64731598 86.09044647 C-47.08397941 89.89537527 -49.52437715 94.14340639 -51.91333008 98.65649414 C-52.91333008 99.65649414 -52.91333008 99.65649414 -54.86279297 99.77001953 C-55.69544678 99.76478271 -56.52810059 99.7595459 -57.38598633 99.75415039 C-58.28510742 99.75092773 -59.18422852 99.74770508 -60.1105957 99.74438477 C-61.52888672 99.73181641 -61.52888672 99.73181641 -62.97583008 99.71899414 C-63.92522461 99.71448242 -64.87461914 99.7099707 -65.8527832 99.70532227 C-68.20636073 99.69349524 -70.55981485 99.67701439 -72.91333008 99.65649414 C-73.73376131 97.33781447 -74.11182148 96.14167381 -73.16333008 93.82324219 C-72.54458008 92.88025269 -72.54458008 92.88025269 -71.91333008 91.91821289 C-71.21228149 90.82935791 -71.21228149 90.82935791 -70.49707031 89.71850586 C-69.97443604 88.93491699 -69.45180176 88.15132812 -68.91333008 87.34399414 C-68.37587158 86.51657715 -67.83841309 85.68916016 -67.28466797 84.83666992 C-66.11842866 83.0446315 -64.94638718 81.25635887 -63.76928711 79.47143555 C-61.88758369 76.61744444 -60.02159413 73.75373141 -58.15942383 70.88696289 C-55.61857654 66.97804243 -53.07169663 63.07318013 -50.51879883 59.17211914 C-47.38647518 54.38412692 -44.26916845 49.58670038 -41.16333008 44.78149414 C-40.72424316 44.10256104 -40.28515625 43.42362793 -39.83276367 42.72412109 C-37.16654011 38.59994585 -34.50398715 34.47343402 -31.85009766 30.34130859 C-30.93878997 28.93395422 -30.018113 27.53261981 -29.08789062 26.13769531 C-26.58883185 22.37399983 -24.33003649 18.60253469 -22.25708008 14.58618164 C-16.68300029 4.28411435 -12.30328435 -0.72067089 0 0 Z M-3.91333008 23.65649414 C-5.56284781 25.80508293 -5.56284781 25.80508293 -7.25708008 28.59790039 C-7.92223633 29.65033936 -8.58739258 30.70277832 -9.27270508 31.78710938 C-9.98635713 32.9310021 -10.69989677 34.07496497 -11.41333008 35.21899414 C-12.85833977 37.51510315 -14.30780311 39.80838947 -15.75708008 42.10180664 C-16.11423096 42.66852585 -16.47138184 43.23524506 -16.83935547 43.81913757 C-20.17064393 49.09423592 -23.62676883 54.27928045 -27.16918945 59.41455078 C-29.27599534 62.27455592 -29.27599534 62.27455592 -29.91333008 65.65649414 C-12.09333008 65.65649414 5.72666992 65.65649414 24.08666992 65.65649414 C22.49094901 61.66719186 20.96512904 58.67841662 18.67260742 55.12133789 C17.99327148 54.06366211 17.31393555 53.00598633 16.61401367 51.91625977 C15.90374023 50.81991211 15.1934668 49.72356445 14.46166992 48.59399414 C13.77459961 47.5247168 13.0875293 46.45543945 12.37963867 45.35375977 C10.29294172 42.11409424 8.19056144 38.88501306 6.08666992 35.65649414 C5.34076077 34.49528908 4.59499323 33.33399304 3.84936523 32.17260742 C3.13619141 31.0754541 2.42301758 29.97830078 1.68823242 28.84790039 C0.72264404 27.35238647 0.72264404 27.35238647 -0.26245117 25.82666016 C-0.80724121 25.11050537 -1.35203125 24.39435059 -1.91333008 23.65649414 C-2.57333008 23.65649414 -3.23333008 23.65649414 -3.91333008 23.65649414 Z " fill="#5F6060" transform="translate(80.913330078125,500.343505859375)"/>
</svg>
