<?xml version="1.0" encoding="UTF-8"?>
<svg version="1.1" xmlns="http://www.w3.org/2000/svg" width="48" height="48">
<path d="M0 0 C0.73541016 0.00202423 1.47082031 0.00404846 2.22851562 0.00613403 C2.97939453 0.00517731 3.73027344 0.00422058 4.50390625 0.00323486 C6.09440189 0.00255315 7.6849003 0.00440682 9.27539062 0.00857544 C11.71816217 0.01392386 14.16074984 0.00863019 16.60351562 0.00222778 C18.1451827 0.00288857 19.68684966 0.00416973 21.22851562 0.00613403 C21.96392578 0.0041098 22.69933594 0.00208557 23.45703125 0 C28.61356402 0.02399493 28.61356402 0.02399493 29.72851562 1.13894653 C29.82938774 3.64818807 29.86823595 6.12931037 29.86132812 8.63894653 C29.86228485 9.38982544 29.86324158 10.14070435 29.86422729 10.91433716 C29.86490901 12.5048328 29.86305534 14.09533121 29.85888672 15.68582153 C29.85353829 18.12859308 29.85883196 20.57118075 29.86523438 23.01394653 C29.86457359 24.55561361 29.86329243 26.09728057 29.86132812 27.63894653 C29.86335236 28.37435669 29.86537659 29.10976685 29.86746216 29.86746216 C29.84346723 35.02399493 29.84346723 35.02399493 28.72851562 36.13894653 C26.21927409 36.23981865 23.73815179 36.27866686 21.22851562 36.27175903 C20.47763672 36.27271576 19.72675781 36.27367249 18.953125 36.2746582 C17.36262936 36.27533991 15.77213095 36.27348625 14.18164062 36.26931763 C11.73886908 36.2639692 9.29628141 36.26926287 6.85351562 36.27566528 C5.31184855 36.2750045 3.77018159 36.27372333 2.22851562 36.27175903 C1.49310547 36.27378326 0.75769531 36.2758075 0 36.27789307 C-5.15653277 36.25389814 -5.15653277 36.25389814 -6.27148438 35.13894653 C-6.37235649 32.629705 -6.4112047 30.14858269 -6.40429688 27.63894653 C-6.4052536 26.88806763 -6.40621033 26.13718872 -6.40719604 25.36355591 C-6.40787776 23.77306027 -6.40602409 22.18256186 -6.40185547 20.59207153 C-6.39650704 18.14929999 -6.40180071 15.70671232 -6.40820312 13.26394653 C-6.40754234 11.72227946 -6.40626118 10.1806125 -6.40429688 8.63894653 C-6.40632111 7.90353638 -6.40834534 7.16812622 -6.41043091 6.41043091 C-6.38192715 0.28494684 -6.12548407 0.02850375 0 0 Z M-3.27148438 4.13894653 C-3.37141969 6.19949964 -3.40229343 8.26347243 -3.40429688 10.32644653 C-3.40558594 11.58199341 -3.406875 12.83754028 -3.40820312 14.13113403 C-3.4061084 14.78823364 -3.40401367 15.44533325 -3.40185547 16.12234497 C-3.39650671 18.13055988 -3.40180129 20.13855112 -3.40820312 22.14675903 C-3.40691406 23.40230591 -3.405625 24.65785278 -3.40429688 25.95144653 C-3.40316895 27.11289185 -3.40204102 28.27433716 -3.40087891 29.47097778 C-3.57485911 32.05957937 -3.57485911 32.05957937 -2.27148438 33.13894653 C-0.21093127 33.23888185 1.85304152 33.26975559 3.91601562 33.27175903 C5.1715625 33.2730481 6.42710938 33.27433716 7.72070312 33.27566528 C8.70635254 33.27252319 8.70635254 33.27252319 9.71191406 33.26931763 C11.72012897 33.26396887 13.72812022 33.26926344 15.73632812 33.27566528 C16.991875 33.27437622 18.24742188 33.27308716 19.54101562 33.27175903 C20.70246094 33.2706311 21.86390625 33.26950317 23.06054688 33.26834106 C25.64914846 33.44232127 25.64914846 33.44232127 26.72851562 32.13894653 C26.82845094 30.07839343 26.85932468 28.01442063 26.86132812 25.95144653 C26.86261719 24.69589966 26.86390625 23.44035278 26.86523438 22.14675903 C26.86313965 21.48965942 26.86104492 20.83255981 26.85888672 20.1555481 C26.85353796 18.14733319 26.85883254 16.13934194 26.86523438 14.13113403 C26.86394531 12.87558716 26.86265625 11.62004028 26.86132812 10.32644653 C26.8602002 9.16500122 26.85907227 8.00355591 26.85791016 6.80691528 C27.03189036 4.2183137 27.03189036 4.2183137 25.72851562 3.13894653 C23.66796252 3.03901122 21.60398973 3.00813748 19.54101562 3.00613403 C18.28546875 3.00484497 17.02992187 3.00355591 15.73632812 3.00222778 C14.75067871 3.00536987 14.75067871 3.00536987 13.74511719 3.00857544 C11.73690228 3.0139242 9.72891103 3.00862962 7.72070312 3.00222778 C6.46515625 3.00351685 5.20960937 3.00480591 3.91601562 3.00613403 C2.75457031 3.00726196 1.593125 3.00838989 0.39648438 3.009552 C-2.19211721 2.83557179 -2.19211721 2.83557179 -3.27148438 4.13894653 Z " fill="#FFFFFF" transform="translate(12.271484375,5.861053466796875)"/>
<path d="M0 0 C1.32 0 2.64 0 4 0 C4 0.66 4 1.32 4 2 C4.556875 2.12375 5.11375 2.2475 5.6875 2.375 C8 3 8 3 13 5 C13 9.62 13 14.24 13 19 C9.8390781 20.26436876 7.23549631 21.28100082 4 22 C4 22.66 4 23.32 4 24 C2.68 24 1.36 24 0 24 C0 23.34 0 22.68 0 22 C-0.556875 21.87625 -1.11375 21.7525 -1.6875 21.625 C-4.2618003 20.92924316 -6.59880886 20.16814704 -9 19 C-9.33 18.01 -9.66 17.02 -10 16 C-9.67 15.67 -9.34 15.34 -9 15 C-8.75266863 10.85723125 -8.75266863 10.85723125 -10 7 C-8 4 -8 4 -6.125 3.375 C-5.073125 3.189375 -5.073125 3.189375 -4 3 C-2.88625 2.7215625 -2.88625 2.7215625 -1.75 2.4375 C-1.1725 2.293125 -0.595 2.14875 0 2 C0 1.34 0 0.68 0 0 Z M-2.875 7.125 C-4.52854531 9.88090884 -4.39365568 11.85075452 -4 15 C-3 17 -3 17 -1 18 C2.14924548 18.39365568 4.11909116 18.52854531 6.875 16.875 C8.52854531 14.11909116 8.39365568 12.14924548 8 9 C7 7 7 7 5 6 C1.85075452 5.60634432 -0.11909116 5.47145469 -2.875 7.125 Z " fill="#FFFFFF" transform="translate(22,12)"/>
</svg>
