<?xml version="1.0" encoding="UTF-8"?>
<svg version="1.1" xmlns="http://www.w3.org/2000/svg" width="64" height="64">
<path d="M0 0 C17.16 0 34.32 0 52 0 C52 17.16 52 34.32 52 52 C34.84 52 17.68 52 0 52 C0 34.84 0 17.68 0 0 Z M2 3 C1.90186013 4.43740353 1.8720172 5.87956327 1.87060547 7.3203125 C1.86745331 8.23796387 1.86430115 9.15561523 1.86105347 10.10107422 C1.8630777 11.09896973 1.86510193 12.09686523 1.8671875 13.125 C1.86623077 14.14223145 1.86527405 15.15946289 1.86428833 16.20751953 C1.86360639 18.36295636 1.86546165 20.51839522 1.86962891 22.67382812 C1.87497695 25.98572371 1.86968437 29.29748367 1.86328125 32.609375 C1.86394203 34.69791697 1.86522319 36.78645885 1.8671875 38.875 C1.86516327 39.87289551 1.86313904 40.87079102 1.86105347 41.89892578 C1.86420563 42.81657715 1.86735779 43.73422852 1.87060547 44.6796875 C1.87140106 45.49163574 1.87219666 46.30358398 1.87301636 47.14013672 C1.79635811 49.01545753 1.79635811 49.01545753 3 50 C4.43740353 50.09813987 5.87956327 50.1279828 7.3203125 50.12939453 C8.23796387 50.13254669 9.15561523 50.13569885 10.10107422 50.13894653 C11.09896973 50.1369223 12.09686523 50.13489807 13.125 50.1328125 C14.65084717 50.13424759 14.65084717 50.13424759 16.20751953 50.13571167 C18.36295636 50.13639361 20.51839522 50.13453835 22.67382812 50.13037109 C25.98572371 50.12502305 29.29748367 50.13031563 32.609375 50.13671875 C34.69791697 50.13605797 36.78645885 50.13477681 38.875 50.1328125 C40.37184326 50.13584885 40.37184326 50.13584885 41.89892578 50.13894653 C42.81657715 50.13579437 43.73422852 50.13264221 44.6796875 50.12939453 C45.49163574 50.12859894 46.30358398 50.12780334 47.14013672 50.12698364 C49.01545753 50.20364189 49.01545753 50.20364189 50 49 C50.09813987 47.56259647 50.1279828 46.12043673 50.12939453 44.6796875 C50.13412277 43.30321045 50.13412277 43.30321045 50.13894653 41.89892578 C50.1369223 40.90103027 50.13489807 39.90313477 50.1328125 38.875 C50.13376923 37.85776855 50.13472595 36.84053711 50.13571167 35.79248047 C50.13639361 33.63704364 50.13453835 31.48160478 50.13037109 29.32617188 C50.12502305 26.01427629 50.13031563 22.70251633 50.13671875 19.390625 C50.13605797 17.30208303 50.13477681 15.21354115 50.1328125 13.125 C50.13483673 12.12710449 50.13686096 11.12920898 50.13894653 10.10107422 C50.13579437 9.18342285 50.13264221 8.26577148 50.12939453 7.3203125 C50.12859894 6.50836426 50.12780334 5.69641602 50.12698364 4.85986328 C50.20364189 2.98454247 50.20364189 2.98454247 49 2 C47.56259647 1.90186013 46.12043673 1.8720172 44.6796875 1.87060547 C43.76203613 1.86745331 42.84438477 1.86430115 41.89892578 1.86105347 C40.40208252 1.86408981 40.40208252 1.86408981 38.875 1.8671875 C37.34915283 1.86575241 37.34915283 1.86575241 35.79248047 1.86428833 C33.63704364 1.86360639 31.48160478 1.86546165 29.32617188 1.86962891 C26.01427629 1.87497695 22.70251633 1.86968437 19.390625 1.86328125 C17.30208303 1.86394203 15.21354115 1.86522319 13.125 1.8671875 C12.12710449 1.86516327 11.12920898 1.86313904 10.10107422 1.86105347 C9.18342285 1.86420563 8.26577148 1.86735779 7.3203125 1.87060547 C6.50836426 1.87140106 5.69641602 1.87219666 4.85986328 1.87301636 C2.98454247 1.79635811 2.98454247 1.79635811 2 3 Z " fill="#FFFFFF" transform="translate(6,6)"/>
<path d="M0 0 C3.96 0 7.92 0 12 0 C12 3.96 12 7.92 12 12 C8.04 12 4.08 12 0 12 C0 10.35 0 8.7 0 7 C-1.65 7 -3.3 7 -5 7 C-5 6.34 -5 5.68 -5 5 C-3.35 5 -1.7 5 0 5 C0 3.35 0 1.7 0 0 Z M2 2 C2 4.64 2 7.28 2 10 C4.64 10 7.28 10 10 10 C10 7.36 10 4.72 10 2 C7.36 2 4.72 2 2 2 Z " fill="#FFFFFF" transform="translate(36,33)"/>
<path d="M0 0 C0.66 0 1.32 0 2 0 C2 1.65 2 3.3 2 5 C3.65 5 5.3 5 7 5 C7 8.96 7 12.92 7 17 C3.04 17 -0.92 17 -5 17 C-5 13.04 -5 9.08 -5 5 C-3.35 5 -1.7 5 0 5 C0 3.35 0 1.7 0 0 Z M-3 7 C-3 9.64 -3 12.28 -3 15 C-0.36 15 2.28 15 5 15 C5 12.36 5 9.72 5 7 C2.36 7 -0.28 7 -3 7 Z " fill="#FFFFFF" transform="translate(21,28)"/>
<path d="M0 0 C3.96 0 7.92 0 12 0 C12 3.96 12 7.92 12 12 C10.35 12 8.7 12 7 12 C7 13.65 7 15.3 7 17 C6.34 17 5.68 17 5 17 C5 15.35 5 13.7 5 12 C3.35 12 1.7 12 0 12 C0 8.04 0 4.08 0 0 Z M2 2 C2 4.64 2 7.28 2 10 C4.64 10 7.28 10 10 10 C10 7.36 10 4.72 10 2 C7.36 2 4.72 2 2 2 Z " fill="#FFFFFF" transform="translate(36,13)"/>
<path d="M0 0 C3.96 0 7.92 0 12 0 C12 1.65 12 3.3 12 5 C13.65 5 15.3 5 17 5 C17 5.66 17 6.32 17 7 C15.35 7 13.7 7 12 7 C12 8.65 12 10.3 12 12 C8.04 12 4.08 12 0 12 C0 8.04 0 4.08 0 0 Z M2 2 C2 4.64 2 7.28 2 10 C4.64 10 7.28 10 10 10 C10 7.36 10 4.72 10 2 C7.36 2 4.72 2 2 2 Z " fill="#FFFFFF" transform="translate(16,13)"/>
<path d="M0 0 C0.66 0 1.32 0 2 0 C2 1.32 2 2.64 2 4 C1.34 4 0.68 4 0 4 C0 2.68 0 1.36 0 0 Z " fill="#FFFFFF" transform="translate(51,49)"/>
<path d="M0 0 C0.66 0 1.32 0 2 0 C2 1.32 2 2.64 2 4 C1.34 4 0.68 4 0 4 C0 2.68 0 1.36 0 0 Z " fill="#FFFFFF" transform="translate(46,49)"/>
<path d="M0 0 C0.66 0 1.32 0 2 0 C2 1.32 2 2.64 2 4 C1.34 4 0.68 4 0 4 C0 2.68 0 1.36 0 0 Z " fill="#FFFFFF" transform="translate(41,49)"/>
<path d="M0 0 C0.66 0 1.32 0 2 0 C2 1.32 2 2.64 2 4 C1.34 4 0.68 4 0 4 C0 2.68 0 1.36 0 0 Z " fill="#FFFFFF" transform="translate(36,49)"/>
<path d="M0 0 C0.66 0 1.32 0 2 0 C2 1.32 2 2.64 2 4 C1.34 4 0.68 4 0 4 C0 2.68 0 1.36 0 0 Z " fill="#FFFFFF" transform="translate(31,49)"/>
<path d="M0 0 C0.66 0 1.32 0 2 0 C2 1.32 2 2.64 2 4 C1.34 4 0.68 4 0 4 C0 2.68 0 1.36 0 0 Z " fill="#FFFFFF" transform="translate(26,49)"/>
<path d="M0 0 C0.66 0 1.32 0 2 0 C2 1.32 2 2.64 2 4 C1.34 4 0.68 4 0 4 C0 2.68 0 1.36 0 0 Z " fill="#FFFFFF" transform="translate(21,49)"/>
<path d="M0 0 C0.66 0 1.32 0 2 0 C2 1.32 2 2.64 2 4 C1.34 4 0.68 4 0 4 C0 2.68 0 1.36 0 0 Z " fill="#FFFFFF" transform="translate(16,49)"/>
<path d="M0 0 C0.66 0 1.32 0 2 0 C2 1.32 2 2.64 2 4 C1.34 4 0.68 4 0 4 C0 2.68 0 1.36 0 0 Z " fill="#FFFFFF" transform="translate(11,49)"/>
</svg>
