<?xml version="1.0" encoding="UTF-8"?>
<svg version="1.1" xmlns="http://www.w3.org/2000/svg" width="48" height="48">
<path d="M0 0 C1.67299959 0.65061095 3.33859237 1.32033324 5 2 C6.71833212 2.38295235 8.44314436 2.73743395 10.171875 3.0703125 C11.07518555 3.24578613 11.97849609 3.42125977 12.90917969 3.60205078 C13.59915039 3.73337402 14.28912109 3.86469727 15 4 C15.146259 7.68707686 15.23438838 11.37339982 15.3125 15.0625 C15.35439453 16.10083984 15.39628906 17.13917969 15.43945312 18.20898438 C15.53233564 24.06058295 15.2989102 28.09739049 11.41040039 32.64282227 C7.32055717 36.57833178 2.50577457 39.37355636 -3 40.75 C-9.91759287 39.02060178 -16.02033806 35.11805392 -20.03833008 29.18725586 C-22.01333785 24.69522879 -21.50662105 19.87371566 -21.3125 15.0625 C-21.28994141 13.99708984 -21.26738281 12.93167969 -21.24414062 11.83398438 C-21.18555756 9.22117978 -21.10358677 6.61134267 -21 4 C-20.08476562 3.79503906 -19.16953125 3.59007812 -18.2265625 3.37890625 C-17.03804687 3.10949219 -15.84953125 2.84007812 -14.625 2.5625 C-12.84996094 2.16224609 -12.84996094 2.16224609 -11.0390625 1.75390625 C-3.20817935 -0.18871643 -3.20817935 -0.18871643 0 0 Z M-19 7 C-19.79863841 18.47772669 -19.79863841 18.47772669 -16 29 C-12.79975076 32.44761149 -9.3373072 35.13991234 -5 37 C0.89627034 37 4.81595144 33.83229226 9 30 C12.90907582 24.70383275 13.12251512 20.23163344 13.0625 13.75 C13.05347656 12.48671875 13.04445312 11.2234375 13.03515625 9.921875 C13.02355469 8.95765625 13.01195312 7.9934375 13 7 C0.99036389 3.17808398 -7.06219999 2.48205531 -19 7 Z " fill="#FFFFFF" transform="translate(27,4)"/>
<path d="M0 0 C3 0.125 3 0.125 4 1.125 C4.34892324 5.19577118 3.41404314 8.32475907 2 12.125 C0.68 12.125 -0.64 12.125 -2 12.125 C-3.41404314 8.32475907 -4.34892324 5.19577118 -4 1.125 C-3 0.125 -3 0.125 0 0 Z " fill="#FFFFFF" transform="translate(24,17.875)"/>
</svg>
